/* XPM */
static char *result[] = {
/* columns rows colors chars-per-pixel */
"48 40 3 1 ",
"  c #306850",
". c #86C06C",
"X c #E0F8CF",
/* pixels */
"................................................",
".............................................X..",
"...................X.......X.........X......X X.",
"........... ......X X.....X X.......X X..... X..",
"......... . . .... X...... X........ X.... ..  .",
".. ................  ......  ........  .. . . ..",
".. ................ ....... ......... ..... ....",
" . . ...........................................",
".................................X..............",
".  ...............X.............X X.......X.....",
".  .  .......  ..X X............ X.......X.X....",
".. . ........  .. X...X....X.....  ..X....X.....",
"..........  . ....  .X X..X X.... ..X X...... ..",
"........... . .... .. X... X........ X...... . .",
"......................  ...  ........  ....... .",
"...................... .... ......... ..........",
"................................................",
".. ................X......X..........X.......X..",
". . ...... .......X X....X.X........X.X.....X.X.",
". ....... . .....X.X..X...X..........X.......X..",
"..... ..... .. .X X  X X........................",
".... . ...... .  X. . X..........X......... ....",
"...... ...... ... . ..  ........X.X...... . . ..",
"................. .... ..........X..............",
"................................................",
".....................................X....... ..",
"............ ..... ...............X...X... ... .",
"........... . ... . ........X...................",
".. .......... ..... .. ....X.X...X.X..... . ....",
". . ................. . ....X....XXX.....   ....",
". ................... ...........XX......  .....",
"................................................",
"................................................",
"...................................X....... ....",
"........................... ......XXX.....   ...",
".......................... . .....X.X..... . ...",
"..... ................ .........................",
".... ....... ........ ................X....... .",
"...........   ....... ...............X....... ..",
"................................................"
};
