/* XPM */
static char *result[] = {
/* columns rows colors chars-per-pixel */
"64 64 221 2 ",
"   c #000000",
".  c #0A0605",
"X  c #000A01",
"o  c #0D0907",
"O  c #03090C",
"+  c #05070B",
"@  c #140E0A",
"#  c #180F0C",
"$  c #041203",
"%  c #001A00",
"&  c #1C120E",
"*  c #040C14",
"=  c #191615",
"-  c #231A13",
";  c #271A14",
":  c #032204",
">  c #0B2508",
",  c #14330C",
"<  c #3A251D",
"1  c #36231B",
"2  c #303818",
"3  c #00152C",
"4  c #021427",
"5  c #001E3C",
"6  c #0C2231",
"7  c #302C30",
"8  c #432B21",
"9  c #54352A",
"0  c #553B28",
"q  c #4E3832",
"w  c #623F31",
"e  c #46301F",
"r  c #085808",
"t  c #184F0C",
"y  c #036601",
"u  c #017901",
"i  c #126C12",
"p  c #37761A",
"a  c #227024",
"s  c #3B461D",
"d  c #55502B",
"f  c #644033",
"g  c #6A4438",
"h  c #754A3A",
"j  c #74563B",
"k  c #537528",
"l  c #547426",
"z  c #00264E",
"x  c #03294E",
"c  c #08274A",
"v  c #002750",
"b  c #022A52",
"n  c #032F58",
"m  c #08385A",
"M  c #17394E",
"N  c #2A3758",
"B  c #093B67",
"V  c #2E2E6A",
"C  c #19464A",
"Z  c #20685D",
"A  c #134364",
"S  c #0D4879",
"D  c #164F79",
"F  c #194E75",
"G  c #144D73",
"H  c #314C69",
"J  c #205A5F",
"K  c #5E5357",
"L  c #694C47",
"P  c #69534A",
"I  c #765548",
"U  c #675A59",
"Y  c #7B5B54",
"T  c #7A615E",
"R  c #43586F",
"E  c #726365",
"W  c #726A63",
"Q  c #6F6265",
"!  c #8A5744",
"~  c #8C5945",
"^  c #885848",
"/  c #915D44",
"(  c #896345",
")  c #986547",
"_  c #96774E",
"`  c #A46F4C",
"'  c #A5714B",
"]  c #AC764C",
"[  c #B57F56",
"{  c #AD7B50",
"}  c #827A6E",
"|  c #018400",
" . c #038A01",
".. c #019D01",
"X. c #089707",
"o. c #16870A",
"O. c #3B891B",
"+. c #0DAC0D",
"@. c #08A308",
"#. c #1AAE18",
"$. c #18B218",
"%. c #0EB00E",
"&. c #34B534",
"*. c #27B129",
"=. c #17A921",
"-. c #498B23",
";. c #7A8D3C",
":. c #39CB3A",
">. c #36D737",
",. c #3AD93A",
"<. c #39D739",
"1. c #24C224",
"2. c #42D53D",
"3. c #279D63",
"4. c #4EAD68",
"5. c #3ED043",
"6. c #46D649",
"7. c #4CD150",
"8. c #67D770",
"9. c #56CC69",
"0. c #96964A",
"q. c #8E8D47",
"w. c #B28154",
"e. c #BA8556",
"r. c #AB9B55",
"t. c #B69A5C",
"y. c #BB8F66",
"u. c #B7AC62",
"i. c #BFB06A",
"p. c #B5A95F",
"a. c #C38C5A",
"s. c #C6925C",
"d. c #CA945E",
"f. c #C28C60",
"g. c #CE9762",
"h. c #C99665",
"j. c #D19963",
"k. c #D69F6A",
"l. c #D09761",
"z. c #C39B74",
"x. c #D5A36D",
"c. c #DAA26C",
"v. c #D5A372",
"b. c #DDA671",
"n. c #DCAA76",
"m. c #C1B36D",
"M. c #E4AB76",
"N. c #E6AE79",
"B. c #E9AE7A",
"V. c #E8AC76",
"C. c #EBB27C",
"Z. c #F0B67F",
"A. c #165687",
"S. c #155B93",
"D. c #1B6598",
"F. c #2D6E93",
"G. c #1E6BA5",
"H. c #1E72B1",
"J. c #3B75A5",
"K. c #277CBB",
"L. c #236DA5",
"P. c #2D5B81",
"I. c #516D89",
"U. c #50718B",
"Y. c #447BA8",
"T. c #6A6ABC",
"R. c #6767B9",
"E. c #277FC0",
"W. c #7574C5",
"Q. c #6464DF",
"!. c #6666E2",
"~. c #6A6AE5",
"^. c #7979E8",
"/. c #7777E6",
"(. c #2F8894",
"). c #34949C",
"_. c #308A95",
"`. c #3183B7",
"'. c #75B49D",
"]. c #468AB9",
"[. c #4280AD",
"{. c #76C399",
"}. c #7DC3A4",
"|. c #2481C5",
" X c #2684C9",
".X c #2D8ACE",
"XX c #889AA1",
"oX c #87BDB9",
"OX c #81BDAF",
"+X c #D5B088",
"@X c #E2BDA2",
"#X c #8FE393",
"$X c #97E999",
"%X c #93CEAE",
"&X c #ADE7B3",
"*X c #9D9DDB",
"=X c #9AB4DA",
"-X c #ACACDB",
";X c #8D8DEC",
":X c #9797F6",
">X c #9B9BF6",
",X c #8D8DF1",
"<X c #A8A8F9",
"1X c #B3B2FF",
"2X c #BDBCFF",
"3X c #B7BAF7",
"4X c #A9B4EB",
"5X c #C0BEFF",
"6X c #B1D1D4",
"7X c #D1EFD7",
"8X c #C5C5F5",
"9X c #CACBFD",
"0X c #D5D5FD",
"qX c #D1D1EC",
"wX c #DDF0E6",
"eX c #EBEBFD",
"rX c #E7EFF3",
"tX c #FEFEFF",
"yX c #F3F2FE",
"uX c #EBF5F0",
"iX c None",
/* pixels */
"iXiXiXiXiXiXiXiXiXiXiXiXiXiXiXiXiXiXiXiXiXiXiXiXiXiXiXiXiXiXiXiXiXiXiXiXiXiXiXiXiXiXiXiXiXiXiXiXiXiXiXiXiXiXiXiXiXiXiXiXiXiXiXiX",
"iXiXiXiXiXiXiXiXiXiXiXiXiXiXiXiXiXiXiXiXiXiXiXiXiXiXiXiXiXiXiXiXiXiXiXiXiXiXiXiXiXiXiXiXiXiXiXiXiXiXiXiXiXiXiXiXiXiXiXiXiXiXiXiX",
"iXiXiXiXiXiXiXiXiXiXiXiXiXiXiXiXiXiXiXiXiXiXiXiXiXiXiXiXiXiXiXiXiXiXiXiXiXiXiXiXiXiXiXiXiXiXiXiXiXiXiXiXiXiXiXiXiXiXiXiXiXiXiXiX",
"iXiXiXiXiXiXiXiXiXiXiXiXiXiXiXiXiXiXiXiXiXiXiXiXiXiXiXiXiXiXiXiXiXiXiXiXiXiXiXiXiXiXiXiXiXiXiXiXiXiXiXiXiXiXiXiXiXiXiXiXiXiXiXiX",
"iXiXiXiXiXiXiXiXiXiXiXiXiXiXiXiXiXiXiXiXiXiXiXiXiXiXiXiXiXiXiXiXiXiXiXiXiXiXiXiXiXiXiXiXiXiXiXiXiXiXiXiXiXiXiXiXiXiXiXiXiXiXiXiX",
"iXiXiXiXiXiXiXiXiXiXiXiXiXiXiXiXiXiXiXiXiXiXiXiXiXiXiXiXiXiXiXiXiXiXiXiXiXiXiXiXiXiXiXiXiXiXiXiXiXiXiXiXiXiXiXiXiXiXiXiXiXiXiXiX",
"iXiXiXiXiXiXiXiXiXiXiXiXiXiXiXiXiXiXiXiXiXiXiXiXiXiXiXiXiXiXiXiXiXiXiXiXiXiXiXiXiXiXiXiXiXiXiXiXiXiXiXiXiXiXiXiXiXiXiXiXiXiXiXiX",
"iXiXiXiXiXiXiXiXiXiXiXiXiXiXiXiXiXiXiXiXiXiXiXiXiXiXiXiXiXiXiXiXiXiXiXiXiXiXiXiXiXiXiXiXiXiXiXiXiXiXiXiXiXiXiXiXiXiXiXiXiXiXiXiX",
"iXiXiXiXiXiXiXiXiXiXiXiXiXiXiXiXiXiXiXiXiXiXiXiXiXiXiXiXiXiXiXiXiXiXiXiXiXiXT.R.R.iXiXiXiXiXiXiXiXiXiXiXiXiXiXiXiXiXiXiXiXiXiXiX",
"iXiXiXiXiXiXiXiXiXiXiXiXiXiXiXiXiXiXiXiXiXiXiXiXiXiXiXiXiXiXiXiXiXiXiXiXiXiXT.T.T.iXiXiXiXiXiXiXiXiXiXiXiXiXiXiXiXiXiXiXiXiXiXiX",
"iXiXiXiXiXiXiXiXiXiXiXiXiXiXiXiXiXiXiXiXiXiXiXiXiXiXiXiXiXiXiXiXiXiXiXiX!.!.4XqXqX^.~.iXiXiXiXiXiXiXiXiXiXiXiXiXiXiXiXiXiXiXiXiX",
"iXiXiXiXiXiXiXiXiXiXiXiXiXiXiXiXiXiXiXiXiXiXiXiXiXiXiXiXiXiXiXiXiXiXiXiX!.!.8XtXeX^.~.iXiXiXiXiXiXiXiXiXiXiXiXiXiXiXiXiXiXiXiXiX",
"iXiXiXiXiXiXiXiXiXiXiXiXiXiXiXiXiXiXiXiXiXiXiXiXiXiXiXiXiXiXiXiXiXiXiXiX;X;X0XtXeX^.~.~.iXiXiXiXiXiXiXiXiXiXiXiXiXiXiXiXiXiXiXiX",
"iXiXiXiXiXiXiXiXiXiXiXiXiXiXiXiXiXiXiXiXiXiXiXiXiXiXQ.!.!.!.!.!.!.!.!.,XyXtXtXtXeX^.~.~.~.~.iXiXiXiXiXiXiXiXiXiXiXiXiXiXiXiXiXiX",
"iXiXiXiXiXiXiXiXiXiXiXiXiXiXiXiXiXiXiXiXiXiXiXiXiXiX!.!.!.~.!.!.~.~.~.,XyXtXtXtXeX^.~.~.~.~.iXiXiXiXiXiXiXiXiXiXiXiXiXiXiXiXiXiX",
"iXiXiXiXiXiXiXiXiXiXiXiXiXiXiXiXiXiXiXiXiXiXiXiXT.*X8X8X8X8X3X>X>X:X:X<X9X0X0X9X8X>X:X:X:X:X^.~.iXiXiXiXiXiXiXiXiXiXiXiXiXiXiXiX",
"iXiXiXiXiXiXiXiXiXiXiXiXiXiXiXiXiXiXiXiXiXiXiXT.T.-XtXtXtXtXeX2X1X1X1X1X1X1X1X1X1X1X1X1X3X<X^.~.~.iXiXiXiXiXiXiXiXiXiXiXiXiXiXiX",
"iXiXiXiXiXiXiXiXiXiXiXiXiXiXiXiXiXiXiXiXiXiXiXW.W.-XtXtXtXtXeX8X2X5X2X2X1X1X1X1X1X1X1X<X<X<X^.!.iXiXiXiXiXiXiXiXiXiXiXiXiXiXiXiX",
"iXiXiXiXiXiXiXiXiXiXiXiXiXiXiXiXiXiXiXiXiXT.W.<X1X0XtXtXtXtXtXtXtXtXyXeX1X1X1X1X1X1X1X,X!.Q.iXiXiXiXiXiXiXiXiXiXiXiXiXiXiXiXiXiX",
"iXiXiXiXiXiXiXiXiXiXiXiXiXiXiXiXiXiXiXiXiXT.T.1X5X0XtXtXtXtXtXtXtXtXtXyX1X1X1X1X1X1X1X,XQ.!.iXiXiXiXiXiXiXiXiXiXiXiXiXiXiXiXiXiX",
"iXiXiXiXiXiXiXiXiXiXiXiXiXiXiXiXiXiXiXiXiXN R '.{.6X0X0X&X$X$X$X$X$X$X#X{.}.=X1X4XoX}.U.V V iXiXiXiXiXiXiXiXiXiXiXiXiXiXiXiXiXiX",
"iXiXiXiXiXiXiXiXiXiXiXiXiXiXiXiXiXiXiXiXiX. . &.<.{.2X3X9.>.,.,.>.>.>.,.,.,.%X1X4X7.5.a     iXiXiXiXiXiXiXiXiXiXiXiXiXiXiXiXiXiX",
"iXiXiXiXiXiXiXiXiXiXiXiXiXiXiXiXiXiXiXiX$ $ % &.:.{.2X2X8.7.6.,.,.>.,.5.7.7.oX1X4X7.5.a $ $ iXiXiXiXiXiXiXiXiXiXiXiXiXiXiXiXiXiX",
"iXiXiXiXiXiXiXiXiXiXiXiXiXiXiXiXiXiX    r o.X.X.@.4.2X8XwXuX&X6.,.>.>.8.wXwX8X1X=X*.$.*.&.&.>     iXiXiXiXiXiXiXiXiXiXiXiXiXiXiX",
"iXiXiXiXiXiXiXiXiXiXiXiXiXiXiXiXiXiX    r %.+.....4.2X5XyXtX7X,.>.>.>.8.uXtX0X1X=X=.+.1.,.:.>     iXiXiXiXiXiXiXiXiXiXiXiXiXiXiX",
"iXiXiXiXiXiXiXiXiXiXiXiXiXiXiXiXiXiX    r +.+.....&.%X=XrXtX7X#X#X#X#X&XtXtX6XoX'.#.%.$.1.*.:     iXiXiXiXiXiXiXiXiXiXiXiXiXiXiX",
"iXiXiXiXiXiXiXiXiXiXiXiXiXiXiXiXiXiX    r $.%.X...$.>.6.7XtXtXtXtXtXtXtXtXtX$X6.&.$.#.@.@. .%     iXiXiXiXiXiXiXiXiXiXiXiXiXiXiX",
"iXiXiXiXiXiXiXiXiXiXiXiXiXiXiXiXiXiXo . r @.+.X.X.#.:.7.7XtXtXtXtXtXtXtXtXtX%X7.6.#.#.@... .: o o iXiXiXiXiXiXiXiXiXiXiXiXiXiXiX",
"iXiXiXiXiXiXiXiXiXiXiXiXiXiXiXiX! / e.y.d : , 0.u.i.m.m.@X@X@X@X@X@X@X@X@X@X+Xm.i.u.u.k : > _ a.{ ! ! iXiXiXiXiXiXiXiXiXiXiXiXiX",
"iXiXiXiXiXiXiXiXiXiXiXiXiXiXiX! ~ ) V.+Xj . @ h.C.V.B.N.M.M.M.M.M.M.M.M.V.M.M.M.M.V.V.j   @ h.Z.y.! ~ iXiXiXiXiXiXiXiXiXiXiXiXiX",
"iXiXiXiXiXiXiXiXiXiXiXiXiXiXiX~ ! ) b.C.( - < h.V.M.N.n.r.0.r.b.V.V.B.x.0.0.t.V.N.M.M.( ; < h.+Xf.! ! iXiXiXiXiXiXiXiXiXiXiXiXiX",
"iXiXiXiXiXiXiXiXiXiXiXiXiXiXiX~ ^ ) b.C.[ ! ~ k.V.M.N.x.O.| -.b.V.M.C.r.o. .;.B.N.N.M.[ ! / x.C.f.! ~ iXiXiXiXiXiXiXiXiXiXiXiXiX",
"iXiXiXiXiXiXiXiXiXiXiXiXiXiXiX~ ! ) b.V.[ ! / c.N.N.N.x.O.| -.M.C.N.N.r.o.| ;.C.N.N.C.w.! / j.V.s.! ! iXiXiXiXiXiXiXiXiXiXiXiXiX",
"iXiXiXiXiXiXiXiXiXiXiXiXiXiXiXiXiXiX` ` ] w.e.j.x.b.C.v.p u k M.C.N.B.r.i u q.C.N.c.x.s.e.w.' ' ` iXiXiXiXiXiXiXiXiXiXiXiXiXiXiX",
"iXiXiXiXiXiXiXiXiXiXiXiXiXiXiXiXiXiX! ! ] j.l.l.g.c.C.b.p y l M.C.N.C.t.i r ;.B.M.j.d.j.l.s./ ! ~ iXiXiXiXiXiXiXiXiXiXiXiXiXiXiX",
"iXiXiXiXiXiXiXiXiXiXiXiXiXiXiXiXiXiX! ! ' a.a.d.j.c.V.b.l l ;.n.N.N.N.t.l p q.V.c.j.j.s.a.e./ / iXiXiXiXiXiXiXiXiXiXiXiXiXiXiXiX",
"iXiXiXiXiXiXiXiXiXiXiXiXiXiXiXiXiXiXiXiXiX! / a.d.j.j.j.d.s.g.M.N.N.V.b.a.d.l.j.j.d.j.] ! ~ iXiXiXiXiXiXiXiXiXiXiXiXiXiXiXiXiXiX",
"iXiXiXiXiXiXiXiXiXiXiXiXiXiXiXiXiXiXiXiXiX~ / s.j.j.j.j.j.l.k.M.M.V.V.M.l.j.j.j.d.d.j.] ! ~ iXiXiXiXiXiXiXiXiXiXiXiXiXiXiXiXiXiX",
"iXiXiXiXiXiXiXiXiXiXiXiXiXiXiXiXiXiXiXiXiX< < 0 0 j ' ' s.j.j.k.x.k.k.j.l.l.[ ' ) f 0 e < < iXiXiXiXiXiXiXiXiXiXiXiXiXiXiXiXiXiX",
"iXiXiXiXiXiXiXiXiXiXiXiXiXiXiXiXiXiXiXiXiX        < ! ! e.j.g.j.j.j.l.l.l.l.' ~ h .         iXiXiXiXiXiXiXiXiXiXiXiXiXiXiXiXiXiX",
"iXiXiXiXiXiXiXiXiXiXiXiXiXiXiXiXiXiXiXiX& - - O   1 I ^ ` w.w.w.w.w.w.w.w.w.( I g * + @ - - iXiXiXiXiXiXiXiXiXiXiXiXiXiXiXiXiXiX",
"iXiXiXiXiXiXiXiXiXiXiXiXiXiXiXiXiXiX    j v.f.M z c x c = @ @ @ @ @ @ @ @ @ 6 M c z z U v.h.-     iXiXiXiXiXiXiXiXiXiXiXiXiXiXiX",
"iXiXiXiXiXiXiXiXiXiXiXiXiXiXiXiXiXiX    ( Z.v.N z v z z *                   3 b v b z W Z.b.; +   iXiXiXiXiXiXiXiXiXiXiXiXiXiXiX",
"iXiXiXiXiXiXiXiXiXiXiXiXiXiXiXiXiXK A A } +Xz.7 4 5 z z 3 4 6 C C C C M 3 4 5 x z 3 4 I C.n.H A H iXiXiXiXiXiXiXiXiXiXiXiXiXiXiX",
"iXiXiXiXiXiXiXiXiXiXiXiXiXiXiX~ ~ E .X.XXXZ.x.&   4 v z v v A ).).).).(.x z z z z     j C.n.]..XY.^ ~ iXiXiXiXiXiXiXiXiXiXiXiXiX",
"iXiXiXiXiXiXiXiXiXiXiXiXiXiXiX~ ~ E  X.XXXn.z.; . 3 n n v v A (.(.(.(.F.x z b n x + . P +X+X]..XJ.^ ~ iXiXiXiXiXiXiXiXiXiXiXiXiX",
"iXiXiXiXiXiXiXiXiXiXiXiXiXiXiX~ ~ E E.E.`.`.[.U h R H.G.B z b m m m m m x z A.H.L.P h I.`.`. X|.J.^ ~ iXiXiXiXiXiXiXiXiXiXiXiXiX",
"iXiXiXiXiXiXiXiXiXiXiXiXiXiXiX! ! E  XE. X|.`.W ^ U.E.K.B z z z z z z z z z S.|.K.T / U.E.E. XE.J.^ ~ iXiXiXiXiXiXiXiXiXiXiXiXiX",
"iXiXiXiXiXiXiXiXiXiXiXiXiXiXiXiX~ U D D D D F q 9 R J.J.A.S B z z v v n S S D.J.F.f 0 N D D D D H ^ ^ iXiXiXiXiXiXiXiXiXiXiXiXiX",
"iXiXiXiXiXiXiXiXiXiXiXiXiXiXiXiXiXiX              < ^ Y K.E.G.v v v z B K.E.I.^ L @             O iXiXiXiXiXiXiXiXiXiXiXiXiXiXiX",
"iXiXiXiXiXiXiXiXiXiXiXiXiXiXiXiXiXiX              1 ! Y J.E.D.b x x v B K.K.I.! h o               iXiXiXiXiXiXiXiXiXiXiXiXiXiXiX",
"iXiXiXiXiXiXiXiXiXiXiXiXiXiXiXiXiXiXiXiX          . - - K Q T L L L L L Q Q q & =           iXiXiXiXiXiXiXiXiXiXiXiXiXiXiXiXiXiX",
"iXiXiXiXiXiXiXiXiXiXiXiXiXiXiXiXiXiXiXiXiX            . g / ~ / / / / ~ / ~ <   .           iXiXiXiXiXiXiXiXiXiXiXiXiXiXiXiXiXiX",
"iXiXiXiXiXiXiXiXiXiXiXiXiXiXiXiXiXiXiXiX      @ # @   + 9 w f f f w w w w w ; .   # & o     iXiXiXiXiXiXiXiXiXiXiXiXiXiXiXiXiXiX",
"iXiXiXiXiXiXiXiXiXiXiXiXiXiXiXiXiXiXiXiX    o 9 w <         .     . + +   +     @ 9 w 1     iXiXiXiXiXiXiXiXiXiXiXiXiXiXiXiXiXiX",
"iXiXiXiXiXiXiXiXiXiXiXiXiXiXiXiXiXiXiXiX    o 9 f <                             o q w 1     iXiXiXiXiXiXiXiXiXiXiXiXiXiXiXiXiXiX",
"iXiXiXiXiXiXiXiXiXiXiXiXiXiXiXiXiXiXiXiX    O P.L.J y y 2 8 ;         o 8 8 t y i D.L.M     iXiXiXiXiXiXiXiXiXiXiXiXiXiXiXiXiXiX",
"iXiXiXiXiXiXiXiXiXiXiXiXiXiXiXiXiXiXiXiX    * L. X3.@...d g 8         @ w w i @.@.|. XA     iXiXiXiXiXiXiXiXiXiXiXiXiXiXiXiXiXiX",
"iXiXiXiXiXiXiXiXiXiXiXiXiXiXiXiXiXiXiXiXiX  * S.G.Z u u s 0 <         @ e 9 i | i D.L.m     iXiXiXiXiXiXiXiXiXiXiXiXiXiXiXiXiXiX",
"iXiXiXiXiXiXiXiXiXiXiXiXiXiXiXiXiXiXiXiXiXiXiXO O O X X . X . iXiXiXiXiX. . . . X O O O iXiXiXiXiXiXiXiXiXiXiXiXiXiXiXiXiXiXiXiX",
"iXiXiXiXiXiXiXiXiXiXiXiXiXiXiXiXiXiXiXiXiXiXiX                iXiXiXiXiX                iXiXiXiXiXiXiXiXiXiXiXiXiXiXiXiXiXiXiXiX",
"iXiXiXiXiXiXiXiXiXiXiXiXiXiXiXiXiXiXiXiXiXiXiXiXiXiXiXiXiXiXiXiXiXiXiXiXiXiXiXiXiXiXiXiXiXiXiXiXiXiXiXiXiXiXiXiXiXiXiXiXiXiXiXiX",
"iXiXiXiXiXiXiXiXiXiXiXiXiXiXiXiXiXiXiXiXiXiXiXiXiXiXiXiXiXiXiXiXiXiXiXiXiXiXiXiXiXiXiXiXiXiXiXiXiXiXiXiXiXiXiXiXiXiXiXiXiXiXiXiX",
"iXiXiXiXiXiXiXiXiXiXiXiXiXiXiXiXiXiXiXiXiXiXiXiXiXiXiXiXiXiXiXiXiXiXiXiXiXiXiXiXiXiXiXiXiXiXiXiXiXiXiXiXiXiXiXiXiXiXiXiXiXiXiXiX"
};
