/* XPM */
static char *result[] = {
/* columns rows colors chars-per-pixel */
"24 24 177 2 ",
"   c #050302",
".  c #0C0202",
"X  c #0E0E0E",
"o  c #120504",
"O  c #1B0404",
"+  c #190B0A",
"@  c gray9",
"#  c #1D1D1D",
"$  c #240605",
"%  c #2A0706",
"&  c #220B08",
"*  c #2E0F0C",
"=  c #360908",
"-  c #3B0A09",
";  c #340807",
":  c #38120E",
">  c #2F1616",
",  c #3A1C1B",
"<  c #371513",
"1  c #35201D",
"2  c #222222",
"3  c #2D2526",
"4  c #2C2C2C",
"5  c #333333",
"6  c #3C3D3D",
"7  c #460C0A",
"8  c #4E0C0B",
"9  c #550E0C",
"0  c #5A0F0D",
"q  c #4E110E",
"w  c #441511",
"e  c #4B1914",
"r  c #481712",
"t  c #591D17",
"y  c #581715",
"u  c #67100F",
"i  c #6F1210",
"p  c #621D1A",
"a  c #741412",
"s  c #7D1413",
"d  c #44211E",
"f  c #6D241C",
"g  c #73261D",
"h  c #422523",
"j  c #4A2C29",
"k  c #5B2824",
"l  c #443E3E",
"z  c #55323A",
"x  c #6C2B26",
"c  c #732825",
"v  c #79322B",
"b  c #46403F",
"n  c #453D49",
"m  c #5F3A41",
"M  c #46464C",
"N  c #4D4D4D",
"B  c #50494E",
"V  c #4D4B55",
"C  c #594F58",
"Z  c #545454",
"A  c #5D5D5D",
"S  c #674745",
"D  c #734E4A",
"F  c #665555",
"G  c #606060",
"H  c #6C6C6C",
"J  c #6D6B7E",
"K  c #716A7B",
"L  c #747475",
"P  c #787777",
"I  c #737379",
"U  c #7C7B7B",
"Y  c #841514",
"T  c #8B1614",
"R  c #891A17",
"E  c #9F1B19",
"W  c #931916",
"Q  c #A41B19",
"!  c #AC1B1A",
"~  c #A21917",
"^  c #B41E1C",
"/  c #BA1F1D",
"(  c #AA221D",
")  c #B3211E",
"_  c #B9201D",
"`  c #8E2E24",
"'  c #852C22",
"]  c #9F2620",
"[  c #982723",
"{  c #813129",
"}  c #953126",
"|  c #9E3226",
" . c #9C3A2F",
".. c #923229",
"X. c #BD2520",
"o. c #B72D25",
"O. c #A33026",
"+. c #A4362C",
"@. c #B1352A",
"#. c #AD3E33",
"$. c #BA3E31",
"%. c #C32B25",
"&. c #C52B25",
"*. c #CC332A",
"=. c #CC3A2F",
"-. c #C1332A",
";. c #D63C31",
":. c #D93F33",
">. c #884139",
",. c #B44236",
"<. c #CE4234",
"1. c #D14335",
"2. c #DD4336",
"3. c #D84B3D",
"4. c #E14537",
"5. c #E14638",
"6. c #E54B3B",
"7. c #E94D3D",
"8. c #A9534A",
"9. c #BE5246",
"0. c #867E7E",
"q. c #DB4F41",
"w. c #CB5448",
"e. c #DC594C",
"r. c #D55548",
"t. c #E95243",
"y. c #ED5D4D",
"u. c #E75749",
"i. c #D56A5F",
"p. c #EB695C",
"a. c #E46558",
"s. c #EA6F62",
"d. c #EE7467",
"f. c #ED7B6E",
"g. c #ED7C71",
"h. c #F17C70",
"j. c #EE857A",
"k. c #897E81",
"l. c gray56",
"z. c #898180",
"x. c #8A889E",
"c. c #909090",
"v. c #9B9B9B",
"b. c #8A88A2",
"n. c #9A9AAA",
"m. c #A0A0A0",
"M. c #AAAAAB",
"N. c #A5A6B1",
"B. c #B1B1B1",
"V. c #B9B9B9",
"C. c #D28880",
"Z. c #ED8D83",
"A. c #F18A80",
"S. c #F19289",
"D. c #F3A49C",
"F. c #F4A9A1",
"G. c #F3A7A0",
"H. c #F7BCB6",
"J. c #F6C2BC",
"K. c #FBC4BF",
"L. c #BDB9D9",
"P. c #C1C1C1",
"I. c #CBCBCB",
"U. c #D2D3D3",
"Y. c #DADADA",
"T. c #F9D3CF",
"R. c #FAD5D1",
"E. c #FAD9D6",
"W. c #CECAEA",
"Q. c #DBD8ED",
"!. c #E6E6E6",
"~. c #ECECEC",
"^. c #FDE9E8",
"/. c #F2F2F1",
"(. c #F8F8F8",
"). c #FEF2F1",
"_. c None",
/* pixels */
"_._._._._._._._.o o . . o . o . _._._._._._._._.",
"_._._._._._._.* e e q 7 7 7 7 - $ _._._._._._._.",
"_._._._.& & + t ` O.] W T T T i 7 O O O _._._._.",
"_._._.: t f g ..<.<.=.%.) ^ ! W a 0 9 7 % _._._.",
"_._.o w ' ,.9.w.q.6.4.;.&.&._ ) E W T u = o _._.",
"_._.+ e  .a.j.j.p.t.6.4.;.*.*.&.X._ ! s - O _._.",
"_._.: x 8.Z.T.H.S.p.u.7.5.5.4.;.&.X.^ Y 8 % _._.",
"  : x 8.j.J.^.E.J.S.p.6.7.7.6.5.;.*.X.E s 9 %   ",
"  w  .i.D.T.).).R.D.d.t.7.7.7.6.5.:.X.^ ~ a =   ",
"  r  .u.g.G.E.T.F.g.u.6.5.6.6.6.6.:.%.X.! s =   ",
"  e +.q.y.f.G.D.g.r.$.O.O.@.=.2.2.:.X.^ ! s -   ",
"  w } <.6.y.d.s.e.,.v k k c ] $.:.:.%.X.~ a ;   ",
"  = f +.1.t.t.3.#. .D G C z c [ o.*.X.Q Y 9 O   ",
"  + h v #.1.=.| x S k.N.n.K z y R ( Q R p < +   ",
"  2 b D >...` p , V n.Q.W.b.n > 8 i a x B l #   ",
"  6 P z.F j h , 4 V b.L.L.k.V 3 > h 1 S 0.0.6 X ",
"X 6 H U U U P P P I J J J J I P P P P U 0.H 6 X ",
"_._.5 G m.U.Y.Y.U.M.L M M I M.U.Y.Y.U.m.G 5 _._.",
"_._.# Z M./.(.(./.Y.B.c.c.B.Y./.(././.M.Z # _._.",
"_._.@ N l.P.I.Y.~./.!.Y.Y.!./.~.Y.I.P.c.N @ _._.",
"_._._.6 A H P v.I.~././././.~.I.v.L L A 6 _._._.",
"_._._._.2 2 4 G v.V.P.P.P.P.V.v.G 3 2 2 _._._._.",
"_._._._._._._.4 N A A A G A A N 4 _._._._._._._.",
"_._._._._._._._.X X X X @ X X X _._._._._._._._."
};
