/* XPM */
static char *result[] = {
/* columns rows colors chars-per-pixel */
"42 44 92 1 ",
"  c #020202",
". c #0C0C0C",
"X c #151515",
"o c #1C1B1C",
"O c #1F1D21",
"+ c #211F23",
"@ c #232125",
"# c #27232C",
"$ c #29252D",
"% c #2E2C2E",
"& c #2C2731",
"* c #2F2935",
"= c #302B34",
"- c #342C3C",
"; c #343434",
": c #393739",
"> c #3E3B3D",
", c #372E41",
"< c #382F41",
"1 c #3A3143",
"2 c #403747",
"3 c #433D45",
"4 c #443C4C",
"5 c #4C454C",
"6 c #4E4C4E",
"7 c #504B4E",
"8 c #4F4754",
"9 c #544C56",
"0 c #594F5B",
"q c #5B535D",
"w c #5F5B5F",
"e c #5C5460",
"r c #5E5963",
"t c #615661",
"y c #645A64",
"u c #685E67",
"i c #675F68",
"p c #685F68",
"a c #636263",
"s c #67616A",
"d c #6C646C",
"f c #6F686F",
"g c #71696F",
"h c #72706E",
"j c #6E6A70",
"k c #736B72",
"l c #767176",
"z c #797076",
"x c #7A7579",
"c c #7E7A7D",
"v c #817B7E",
"b c #7F7D80",
"n c #837E81",
"m c #848284",
"M c #898486",
"N c #8A8588",
"B c #8D8A8B",
"V c #918E8E",
"C c #93908F",
"Z c #959292",
"A c #999694",
"S c #9C9896",
"D c #9E9B98",
"F c #A19E9C",
"G c #A5A29E",
"H c #A7A5A1",
"J c #A9A6A2",
"K c #ACAAA5",
"L c #AEAEA8",
"P c #B0ADA7",
"I c #B1AEA9",
"U c #B5B3AC",
"Y c #B8B7B0",
"T c #BBBCB3",
"R c #BEC0B7",
"E c #BFC1B8",
"W c #C0C1B7",
"Q c #C2C4BA",
"! c #C6CABF",
"~ c #C8CBBF",
"^ c #C7CBC0",
"/ c #C9CDC2",
"( c #CDD2C5",
") c #D0D5C7",
"_ c #D1D6C9",
"` c #D3D9CB",
"' c #D9DBD2",
"] c #DDE1D4",
"[ c #E2E7DA",
"{ c #E5EADD",
"} c #E8EDDF",
"| c #E8EDE0",
/* pixels */
"MMmMmMmmMMmMmNBmBmmmBmmmBmBmmmmBnnnnnnnnNm",
"jjjjjjjjjjjjjjjjjjjjjjjjjjjljjjjbNZVVVVVNm",
"44444451444444514444448114414114yZJGJHHFBN",
",,,-,,11,,,,,,,,,,,,,,,,1,,,,,,,0SPPLLLHVb",
"11111,1,111,,,,,1,,,,,,,<1111111eSIPPJPHVm",
"1,111*$-11-&##$$#$#####@#2errrr8dKTPJPPHVb",
",1,1,#O*11=@ooooOOOOOOooO6bBmmbrnTQPPJPHVm",
"11111-&,11,*&&&&&&######&wAFSVbsnW^PJPKHVm",
",,,,--------:-----1444111lKUHVcinT^LKKKHZb",
"O$,*++#O++@@@@@@+%9jjdq9qBETJZxinT^LJKKHVN",
"O$,*+ooooooXXXXXX@aBBcfiaZ^EHCcibT^YUIIHVb",
"=-,,=Oo#*OXXXXoXX@lDBmbjsZ^EJVcpbT(^^^YHVm",
"====*#o#&O+;;;%%$>MICmmlsZ!EJVxsb^'(_(THVb",
"OOOOOooOoo%ahq906aGEAmmluZ!EJCxsN'|__(THVm",
"......... %cBlgkafK!JVNzsC~~YGNdN'|_((THVm",
"          %MGmnbffK~UDBksC/_~UAgn'|_(/THVm",
"   X%=%==%7ZHNmmffJ/YFBksC/`(TSgn/'ETTUHVn",
"   $qytqtqkDFBmmffH(TGBzsC~`/TFgnQ^UIIIHVn",
"  .:ggyuyylDJDZnffJ(!YGmdV/`/TSgn_'^EEUHZn",
"..+7nxsyttkDLLDmdfJ(_!UBdV/)~YSgn(|_(/THVn",
"335gAVxdytkFLKDmdfJ)`^UBdV~!UUSgn^'(((THVn",
"uuuvGDmkutkSKHAmdfH((EJMdV~QUIFgnQ'(_(ELZn",
"yyyvGDmnzukFHBNnffH/TJZxpC~)QUAgn'|_(((TAb",
"ytyvGSmmvdgFHZBmffJ(EKAxdC~(QUFgn`|_((/TAb",
"ytyvFSnmcpkSPHAmffJ)(QKNdC~WIIFgN'|_((EKVm",
"ytyvJFMmndkFKFZmdgH(~TFndC~~YIFgn'|`((^UZm",
"yyyvFAmmcpgFFBmnffJ/TFVzuC/_~YAdN'|`(((EAm",
"ttygnckkgukSFMxkudJ/YFNzuC/`(YFgn^'TTTEYZm",
"tytupppuytkFHBxptfJ/TFCzpC/`/TFgbQ/ULLLHVm",
"yyysklkpttkFJDBludH(~YFndC~`/TFgb('QEEUGVm",
"ytykmBnkutkSLKDmffJ)_~UNdC/)~UAdN'|_((TGVm",
"utyxDZmbzpkFIKDmdfJ)`~UVdV~QUPFgm'|`((RGVb",
"ttynHSMmndkFJGAMfdJ((EKMdC!QUIFgM'{)((WPVn",
"yttnHSmmnskSGVMnffJ/TKCxsC~(!YAgN'{`))(WSn",
"yttzVMxxkikFGMbxsfJ/UFBksC/`/TSgn_]~QQ~WAb",
"ttupdpiipykFGMlsrfJ/YGBksC~`~YFgnQ/UIIIKZm",
"ytuusffuttkFHAnkydK(QUAvsC~`(TSgvW/TYYUGVm",
"uytfnmbfyykDLJAndfG((QINdC~`~TFgvW_/)/YHVm",
"kfuzZCmxgukDLLDmffJ_`~YVdV~~TUSkvY_))(THBm",
"mlivFSNmcpkDLJDmffG()QIBdV~QIPSgvW`()/WJVm",
"mzyvJJSBcikFJZVnddAEEUSxsZ/(WUSfm([___/TAb",
"VnknJPKAmkxSFMmnlfBGGDBldVE!QUAkm('^QQ^TAm",
"YLSFJPKGDSVVBmnmccMBCBmcxBADSZBcmFGDSDSABm",
"_!UKKKKKKIGBmmmmmmmmmmmmmmmmbmmMmmmbmbmbmm"
};
