/* XPM */
static char *result[] = {
/* columns rows colors chars-per-pixel */
"34 52 14 1 ",
"  c black",
". c gray26",
"X c #7D5C58",
"o c #636262",
"O c #D2524A",
"+ c #70A363",
"@ c #99E17B",
"# c #949392",
"$ c #E3AB82",
"% c #FFD8BF",
"& c #C2C0DF",
"* c #EAF3E5",
"= c #EFEDFC",
"- c None",
/* pixels */
"----------------------------------",
"----------....--------------------",
"----------....--------------------",
"----------..==..------------------",
"----------..==..------------------",
"----......&&==**......------------",
"----......&&==**......------------",
"----..****====&&======....--------",
"----..****====&&======....--------",
"------..&&================..------",
"------..&&================..------",
"----  &&====================  ----",
"----  &&====================  ----",
"----  ======================  ----",
"----  ======================  ----",
"--  ++&&==================&&++  --",
"--  ++&&==================&&++  --",
"--  @@++++&&==========&&++++@@  --",
"--  @@++++&&==========&&++++@@  --",
"--  @@@@@@++++++++++++++@@@@@@  --",
"--  @@@@@@++++++++++++++@@@@@@  --",
"--..++@@@@@@@@@@@@@@@@@@@@@@++..--",
"--..++@@@@@@@@@@@@@@@@@@@@@@++..--",
"..$$..++++@@@@@@@@@@@@@@++++..$$..",
"..$$..++++@@@@@@@@@@@@@@++++..$$..",
"  $$XX....++++++++++++++....XX$$  ",
"  $$XX....++++++++++++++....XX$$  ",
"--  XX......................XX  --",
"--  XX......................XX  --",
"----  $$..................$$  ----",
"----  $$..................$$  ----",
"------  $$$$..........$$$$  ------",
"------  $$$$..........$$$$  ------",
"------  ..XX$$$$$$$$$$XX..  ------",
"------  ..XX$$$$$$$$$$XX..  ------",
"----..oooo..............oooo..----",
"----..oooo..............oooo..----",
"--  OOoooo..@@@@oo@@@@..ooooOO  --",
"--  OOoooo..@@@@oo@@@@..ooooOO  --",
"  %%%%OO..++@@oooooo@@++..OO%%%%  ",
"  %%%%OO..++@@oooooo@@++..OO%%%%  ",
"  $$%%....++++oo++oo++++....%%$$  ",
"  $$%%....++++oo++oo++++....%%$$  ",
"--    ..oo++++oo++oo++++oo..    --",
"--    ..oo++++oo++oo++++oo..    --",
"----##  ....++oooooo++....  ##----",
"----##  ....++oooooo++....  ##----",
"----##  OOOO          OOOO  ##----",
"----##  OOOO          OOOO  ##----",
"------##    ##########    ##------",
"------##    ##########    ##------",
"------------##########------------"
};
