/* XPM */
static char *result[] = {
/* columns rows colors chars-per-pixel */
"34 52 16 1 ",
"  c black",
". c gray26",
"X c #7D5C58",
"o c #636262",
"O c #D2524A",
"+ c #FF7262",
"@ c #70A363",
"# c #99E17B",
"$ c #949392",
"% c #E3AB82",
"& c #FFD8BF",
"* c #C2C0DF",
"= c #D1CFDF",
"- c #EAF3E5",
"; c #EFEDFC",
": c None",
/* pixels */
"::::::::::::::::::::::::::::::::::",
"::::::::::::::::::::....::::::::::",
"::::::::::::::::::::....::::::::::",
"::::::::::::::::::..;;..::::::::::",
"::::::::::::::::::..;;..::::::::::",
"::::::::::::......--;;**......::::",
"::::::::::::......--;;**......::::",
"::::::::....**;;;;**;;;;----..::::",
"::::::::....**;;;;**;;;;----..::::",
"::::::..;;;;;;;;;;;;;;;;**..::::::",
"::::::..;;;;;;;;;;;;;;;;**..::::::",
"::::  ;;;;;;;;;;;;;;;;;;;;**  ::::",
"::::  ;;;;;;;;;;;;;;;;;;;;**  ::::",
"::::  ;;;;;;;;;;;;;;;;;;;;;;..::::",
"::::  ;;;;;;;;;;;;;;;;;;;;;;..::::",
"::  @@**;;;;;;;;;;;;;;;;;;**@@..::",
"::  @@**;;;;;;;;;;;;;;;;;;**@@..::",
"::  ;;@@@@**;;;;;;;;;;**@@@@##..::",
"::  ;;@@@@**;;;;;;;;;;**@@@@##..::",
"::  ;;##;;@@@@@@@@@@@@@@######  ::",
"::  ;;##;;@@@@@@@@@@@@@@######  ::",
"::  @@;;;;##################@@  ::",
"::  @@;;;;##################@@  ::",
"::  %%@@@@##############@@@@..  ::",
"::  %%@@@@##############@@@@..  ::",
"::..&&%%%%@@@@@@@@@@@@@@......  ::",
"::..&&%%%%@@@@@@@@@@@@@@......  ::",
"::..&&&&..==%%..%%XX........  ::::",
"::..&&&&..==%%..%%XX........  ::::",
"::..&&&&  ;;&&XX%%%%XX......  ::::",
"::..&&&&  ;;&&XX%%%%XX......  ::::",
"::::XX&&&&&&&&%%%%%%XX....  ::::::",
"::::XX&&&&&&&&%%%%%%XX....  ::::::",
"::::::  %%&&%%%%%%XX..    ::::::::",
"::::::  %%&&%%%%%%XX..    ::::::::",
"::::::::  XXXX....OOoooo..::::::::",
"::::::::  XXXX....OOoooo..::::::::",
"::::::::..++..@@ooOO@@oo@@..::::::",
"::::::::..++..@@ooOO@@oo@@..::::::",
"::::::..++..oo@@@@OO@@@@oo  ::::::",
"::::::..++..oo@@@@OO@@@@oo  ::::::",
"::::::  OO..oooo@@..@@@@oo  ::::::",
"::::::  OO..oooo@@..@@@@oo  ::::::",
"::::$$$$  &&oooo..OOoo@@  $$$$::::",
"::::$$$$  &&oooo..OOoo@@  $$$$::::",
"::::$$$$  %%&&..ooOO..  $$$$$$::::",
"::::$$$$  %%&&..ooOO..  $$$$$$::::",
"::::$$$$$$  ..OOOO..  $$$$$$$$::::",
"::::$$$$$$  ..OOOO..  $$$$$$$$::::",
"::::::$$$$$$        $$$$$$$$::::::",
"::::::$$$$$$        $$$$$$$$::::::",
"::::::::::::$$$$$$$$::::::::::::::"
};
