/* XPM */
static char *result[] = {
/* columns rows colors chars-per-pixel */
"64 64 172 2 ",
"   c #1B1534",
".  c #1E1B34",
"X  c #211F34",
"o  c #2C242F",
"O  c #2E2C2F",
"+  c #332E2E",
"@  c #35322E",
"#  c #3A342B",
"$  c #36392F",
"%  c #3C3A2C",
"&  c #242333",
"*  c #292632",
"=  c #272933",
"-  c #2B2B32",
";  c #332535",
":  c #3B2636",
">  c #322A33",
",  c #3E2A33",
"<  c #39253A",
"1  c #2D3333",
"2  c #2F3C33",
"3  c #343431",
"4  c #3A3332",
"5  c #323C32",
"6  c #353F39",
"7  c #433D29",
"8  c #422A34",
"9  c #4B2D32",
"0  c #40273B",
"q  c #43293A",
"w  c #4A2A3B",
"e  c #4C3032",
"r  c #543234",
"t  c #5C3632",
"y  c #53303A",
"u  c #59323D",
"i  c #663A32",
"p  c #6B3C32",
"a  c #3D452F",
"s  c #3F4C2F",
"d  c #3F522F",
"f  c #344232",
"g  c #3A4432",
"h  c #3A4D31",
"j  c #394539",
"k  c #3B4A39",
"l  c #3D5231",
"z  c #3E5D32",
"x  c #4A4326",
"c  c #4D4A26",
"v  c #444329",
"b  c #484628",
"n  c #454B2B",
"m  c #4B4C28",
"M  c #514D25",
"N  c #4F5127",
"B  c #44562E",
"V  c #4D5429",
"C  c #455A2F",
"Z  c #4D5C2B",
"A  c #525326",
"S  c #545B27",
"D  c #505628",
"F  c #505C29",
"G  c #424635",
"H  c #464935",
"J  c #415730",
"K  c #425A30",
"L  c #734234",
"P  c #784636",
"I  c #7D4937",
"U  c #764738",
"Y  c #47612F",
"T  c #4B642D",
"R  c #4C6A2F",
"E  c #566327",
"W  c #52642A",
"Q  c #526B2B",
"!  c #596B28",
"~  c #4E722F",
"^  c #51752E",
"/  c #5B7528",
"(  c #527C2F",
")  c #5C7C2A",
"_  c #466230",
"`  c #496730",
"'  c #446932",
"]  c #4B6B30",
"[  c #4C653E",
"{  c #4E683E",
"}  c #516E3E",
"|  c #4F7330",
" . c #4D7B32",
".. c #517C30",
"X. c #5B7F41",
"o. c #834D39",
"O. c #86513A",
"+. c #8B533A",
"@. c #91573B",
"#. c #93583C",
"$. c #55842F",
"%. c #59872E",
"&. c #57892F",
"*. c #598D2F",
"=. c #5A922F",
"-. c #5D9C2F",
";. c #548430",
":. c #548C31",
">. c #5B8B34",
",. c #598334",
"<. c #559232",
"1. c #5B9530",
"2. c #5D9C30",
"3. c #608B2A",
"4. c #63932C",
"5. c #629C2D",
"6. c #618E38",
"7. c #6B8E33",
"8. c #609036",
"9. c #629F34",
"0. c #6B9B3C",
"q. c #5FA02F",
"w. c #5FA230",
"e. c #63A32E",
"r. c #64AC2E",
"t. c #66B32F",
"y. c #67BB2F",
"u. c #68BB2F",
"i. c #61A430",
"p. c #6AA331",
"a. c #63AC30",
"s. c #69A13E",
"d. c #72AF36",
"f. c #76A73A",
"g. c #66B430",
"h. c #69B532",
"j. c #6ABD30",
"k. c #6FB539",
"l. c #70B235",
"z. c #78BC3A",
"x. c #6AC12F",
"c. c #6CC231",
"v. c #72C535",
"b. c #74CA36",
"n. c #78C33D",
"m. c #76C938",
"M. c #7CCD3D",
"N. c #77D238",
"B. c #7DD13C",
"V. c #6C9A46",
"C. c #6EA045",
"Z. c #75A741",
"A. c #78B342",
"S. c #7DB948",
"D. c #80CE3F",
"F. c #80D13F",
"G. c #80BD45",
"H. c #80BB4B",
"J. c #80C742",
"K. c #81CD41",
"L. c #88CA4B",
"P. c #84D441",
"I. c #88D645",
"U. c #8AD945",
"Y. c #8CD748",
"T. c #8EDB48",
"R. c #93DD4D",
"E. c #94E14D",
"W. c #98E44F",
"Q. c #9AE650",
"!. c #9EED51",
"~. c None",
/* pixels */
"~.~.~.~.~.~.~.~.~.~.~.~.~.~.~.~.~.~.~.~.~.~.~.~.~.~.~.~.~.~.~.~.~.~.~.~.~.~.~.~.~.~.~.~.~.~.~.~.~.~.~.~.~.~.~.~.~.~.~.~.~.~.~.~.",
"~.~.~.~.~.~.~.~.~.~.~.~.~.~.~.~.~.~.~.~.~.~.~.~.~.~.~.~.~.            ~.~.~.~.~.~.~.~.~.~.~.~.~.~.~.~.~.~.~.~.~.~.~.~.~.~.~.~.~.",
"~.~.~.~.~.~.~.~.~.~.~.~.~.~.~.~.~.~.~.~.~.~.~.~.~.~.~.~.6 X.X.X.} } { 6 ~.~.~.~.~.~.~.~.~.~.~.~.~.~.~.~.~.~.~.~.~.~.~.~.~.~.~.~.",
"~.~.~.~.~.~.~.~.~.~.~.~.~.~.~.~.~.~.~.~.~.~.~.~.~.~.~.  j H.R.Q.Q.!.L.j   ~.~.~.~.~.~.~.~.~.~.~.~.~.~.~.~.~.~.~.~.~.~.~.~.~.~.~.",
"~.~.~.~.~.~.~.~.~.~.~.~.~.~.~.~.~.~.~.~.~.~.~.~.~.~.X X k L.!.W.Q.!.L.k X & ~.~.~.~.~.~.~.~.~.~.~.~.~.~.~.~.~.~.~.~.~.~.~.~.~.~.",
"~.~.~.~.~.~.~.~.~.~.~.~.~.~.~.~.~.~.~.~.~.~.. .   f :.C.S.E.Q.Q.Q.Q.E.G.s.;.f .   . ~.~.~.~.~.~.~.~.~.~.~.~.~.~.~.~.~.~.~.~.~.~.",
"~.~.~.~.~.~.~.~.~.~.~.~.~.~.~.~.~.~.~.~.~.X.,.X.6 2 w.N.T.W.W.Q.Q.Q.W.U.B.w.2 6 X.X.[ ~.~.~.~.~.~.~.~.~.~.~.~.~.~.~.~.~.~.~.~.~.",
"~.~.~.~.~.~.~.~.~.~.~.~.~.~.~.~.~.~.~.~.. V.Q.H.X.l g.x.b.E.Q.Q.Q.Q.E.b.x.g.z { S.Q.V.= ~.~.~.~.~.~.~.~.~.~.~.~.~.~.~.~.~.~.~.~.",
"~.~.~.~.~.~.~.~.~.~.~.~.~.~.~.~.~.~.& . = C.S.k  .j.c.j.v.T.Q.Q.Q.Q.T.v.u.c.j. .j S.C.= X & ~.~.~.~.~.~.~.~.~.~.~.~.~.~.~.~.~.~.",
"~.~.~.~.~.~.~.~.~.~.~.~.~.~.~.~.~.X . 1 J i.j.2.w.v.U.M.c.v.I.Q.Q.U.v.c.M.T.v.r.2.j.s.J - X X ~.~.~.~.~.~.~.~.~.~.~.~.~.~.~.~.~.",
"~.~.~.~.~.~.~.~.~.~.~.~.~.~.~.~.O # * 5 <.t.v.P.U.P.F.P.K.x.v.K.F.v.c.K.P.M.P.P.P.c.t.<.f & # - ~.~.~.~.~.~.~.~.~.~.~.~.~.~.~.~.",
"~.~.~.~.~.~.~.~.~.~.~.~.~.~.~.- @ 7 @ z h.c.v.I.W.E.M.F.I.M.v.j.j.c.M.I.P.M.R.Q.U.v.u.y.z @ 7 # - ~.~.~.~.~.~.~.~.~.~.~.~.~.~.~.",
"~.~.~.~.~.~.~.~.~.~.~.~.~.~.& 7 7 * l &.h.v.c.j.P.E.E.B.m.T.F.j.j.F.T.m.F.E.E.P.c.c.c.j.;.l * 7 7 & ~.~.~.~.~.~.~.~.~.~.~.~.~.~.",
"~.~.~.~.~.~.~.~.~.~.~.~.~.~.* 7 7 =  .h.j.P.I.c.x.v.v.P.U.m.c.j.j.c.m.U.P.v.v.c.c.Y.P.j.h. .= 7 7 * ~.~.~.~.~.~.~.~.~.~.~.~.~.~.",
"~.~.~.~.~.~.~.~.~.~.~.~.~.+ % V C d 2.c.c.m.P.I.b.c.F.P.B.P.m.j.j.m.P.M.P.F.v.b.P.P.m.c.x.1.l C V % > ~.~.~.~.~.~.~.~.~.~.~.~.~.",
"~.~.~.~.~.~.~.~.~.~.~.~.X + M T | *.=.i.j.y.v.P.l.s.P.P.F.W.P.x.c.P.Q.F.F.I.s.l.P.v.u.j.a.-.%.| T M + X ~.~.~.~.~.~.~.~.~.~.~.~.",
"~.~.~.~.~.~.~.~.~.~.~.~.X + M Z ..a.&.%.y.c.v.j.) E e.D.R.R.n.w.w.n.R.E.K.e.E ) c.c.c.g.%.&.a.;.Z M + X ~.~.~.~.~.~.~.~.~.~.~.~.",
"~.~.~.~.~.~.~.~.~.~.~.& X + M T R ^ -.y.j.P.Y.c.%.T S 4.v.v. .1 1  .v.v.4.S Z 0.Y.m.j.j.j.2.~ R W c + X & ~.~.~.~.~.~.~.~.~.~.~.",
"~.~.~.~.~.~.~.~.~.~.+ % * & + K R R ~ s.I.P.m.j.g.=.T W W d h l h h l Q E W Z.J.M.Y.B.j.=...] R J @ X o % + ~.~.~.~.~.~.~.~.~.~.",
"~.~.~.~.~.~.~.~.~.+ 7 V a 5 5 f J R T >.K.b.u.c.x.h.=.Q n $ l R ] l 5 m Q 1.M.B.c.B.B.h.$.R T d f 5 5 a V v + ~.~.~.~.~.~.~.~.~.",
"~.~.~.~.~.~.~.* + v F R R R ` 5 1 z T ^ e.j.j.a.h.c.j.1.^ ..( ^  .( ( ~ -.u.v.k.a.j.h.a.^ C C 5 5 R R R R Z b > * ~.~.~.~.~.~.~.",
"~.~.~.~.~.~.X + c Z R R R R R R d O 7 D ~ w.a.( 2.c.j.j.h.g.j.y.h.h.j.j.h.v.T.k.;.i.w.R F 7 1 l T R R R T R Z c + X ~.~.~.~.~.~.",
"~.~.~.~.~.~.& @ M T R R 2.1.R T Y B C T R ~ &.i.M.P.c.u.c.u.F.U.c.M.P.v.=./ k.J.J.>.~ R T C J Y ` R 1.2.] R T M @ X ~.~.~.~.~.~.",
"~.~.~.~.~.~.. + M T  .1.1.1.1.2.&.R R ..>.Q Q j.B.P.P.m.x.c.m.P.P.P.P.P.7.A e.N.P.a./ Z T R R &.2.1.1.1.1...T M + X ~.~.~.~.~.~.",
"~.~.~.~.~.~.1 @ v C %.i.&.&.a.a.2.R Y ( i./ W 4.y.b.U.z.e.u.u.v.Y.P.m.T.f./ 3.e.5.e.3.! / ..~ 1.a.a.*.&.i.;.C v @ 1 ~.~.~.~.~.~.",
"~.~.~.~.~.= J h 1 J R ~ w.w.~ R R R R ~ R R T S %.u.h.) E r.x.c.c.M.Y.m.j.r.! A S S / t.u.-.R ] R ~ w.i.~ R C 1 h J = ~.~.~.~.~.",
"~.~.~.~.~.= K Y K Y R R ~ ~ R R R ] 2.2.R =.-.T W E E S ^ g.x.u.j.9.>.g.x.h.^ / e.e.=.%.r.w.R T T ] ~ ~ R R R K T J = ~.~.~.~.~.",
"~.~.~.~.~.& 2 l R ] T R ` ` T Z Z T $.=.-.n.M.9.Q V V Z ~ &.r.h.1.<.=.=.*.:.1.k.P.b.-.] $.$.R Z Z R ` T R R R ] l 2 = ~.~.~.~.~.",
"~.~.~.~.X & - f K  .( R ( ( T n B ( ] ,.m.U.P.c.-.;.;.%. .R ;.9.&.=.2.&.$.&.t.M.Y.B.g.;.R ~ ( C n T ( ( R R T l f - & X ~.~.~.~.",
"~.~.~.X & - K s 2 :.1.( w.w.~ 5 l w.:.>.L.M.j.j.j.u.g.g.a.;.] ;.g.2.( a.j.g.u.y.k.I.I.a.$.%.w.h 2 R i.a. .T l - l Y - X & ~.~.~.",
"~.~.~.X + n W R K 5 ' a.&.&.a. .h f ;.w.,.r.r.( 9.t.$.-.v.I.z.j.U.J.g.j.2.$.r.q.;.g.i.$.q.:.f h  .a.j.c.t.z 1 K 1.5.V + X ~.~.~.",
"~.~.* % n W =.>.R h C / S W %.2.$.h h z V ^ *.2.*.&.-.t.v.M.P.Y.B.v.j.j.g.2.&.=.2.&.^ V l h h $.-.&.) / / C l ] ( *.4.W # * ~.~.",
"~.~.* x F ~ 1.%.T T T V N W &.2.-.&.l $ V T ~ 2.=.&.2.-.e.y.M.I.F.v.c.c.g.2.*.=.q.<.^ V B ' &.-.2.&.T c V T T T ^ *.2.) x * ~.~.",
"~.~.* 7 V R R Z M T T R ~ &.a.( ( a.*.~ R R R ~ 2.i.^ T ^ e.y.v.U.K.g.a.%.| i.=.~ -.5.( a.j.a.$.( a.*.^ R ] T M 3.e.~ V 7 * ~.~.",
"~.~.~.& f T R Z M T T | w.w.~ R ] ^ w.w.R T ( a.=.] R Z V Q =.x.c.2.~ F F R ~ R R ~ &.g.j.i...] R ~ -.i.~ T T c W ~ T f & ~.~.~.",
"~.~.X . = 5 m F Z T $.e.<.^ ` T ..i.j.i.~ *.w.&.1.2.R T Z V R %.;.Q A V C ~ 2.&.R <.g.j.j.g.q.e.=.] ^ *.e.$.T T D m 5 & X X ~.~.",
"~.X & + @ @ # n R R ( -.1.$.R $.1.2.g.g.<.=.2.&.1.:.R ;.%.Z V Z Z N Z %.1.*.1.=.=.g.c.j.j.g.-.h.a.~ ( 1.2.( R R n % 5 $ + & X ~.",
"& & + n S m o 5 R R T R 2.2.~ 2.1.~ =.g.j.%.( g.2.^ ( -.w.%.T M M T $.w.j.y.:.1.c.j.x.j.t.2.$.2.1.~ 2.2.] T R R 5 - C W n + & & ",
"X @ c Z R C 1 5 T R ] R ] R R ~ ~ R R &.g.&.( g.u.h.g.*.$.a.=.R T =.a.$.<.g.j.h.j.j.c.g.$.$.a.&.R R R ] R R T Y 5 1 _ R T c # X ",
"X * @ m W R K f 1 n Z T ] T R 1.1.R R R ( R $.j.x.c.j.g.r.u.h.2.~ >.j.r.=.%.g.e.$.a.a.$.R R $.-.2.R R R R Z n 3 h K T F n + * X ",
"~.X * v A F R C % @ n ` R T R &.2.1.( T V Z ~ =.=.2.j.c.h.-.a.j.-.a.j.x.=.~ a.g.1.1.( Z Y ..=.-.&.R R R ` n @ # B R F S 7 * X ~.",
"~.~.* 7 7 x Z F m @ $ Z R ] R ` ..e.( Z D Q ( R Y ( g.g.w.$.2.j.x.x.j.g.<.$.2.a.i.^ Z A Z ) q.( T R R R C $ # N Z V x 7 7 * ~.~.",
"~.~.~.& & - x Z T A M M Z R T T R T V D T 2.i.~ R ( r.*.~ r.j.u.j.j.g.^ =.g.%.R R R R T N V T T T R T Z A M V T F v - & & ~.~.~.",
"~.~.~.X + v Z Z A Z Z M M A A A v 1 h R R ~ &.a.&.R ^ T F ^ 2.g.;.2.r.E ) j.g.*.~ 2.2.] T B 1 b A A A M M D Z N Z Z n + X ~.~.~.",
"~.~.~.. # M D F Z R T Z Z Z F M 7 % $ s ` ] | :.( Y f n Q <.2.&.2.1.%.W C ' &.$.~ :.;.] h 3 % 7 M Z Z Z Z T R Z D F M # X ~.~.~.",
"~.~.~.& + 7 N Z R R R R R R R Z S A $ $ Z Z Z Z C f & 1 _ 2.%.~ -.&.R l 2 & 5 C Z Z Z Z $ $ A D Z T ] ] R R R R Z c v > X ~.~.~.",
"~.~.~.& . * B R T T R R T T R T T T F M M M M c @ = * & 1 C _ _ _ _ K 3 & * * $ M M M M M F T R T R T T R R T T R C = X & ~.~.~.",
"~.~.~.~.. * x A A M D T V F R R R R T T T D A T T C c x v - * * = = - 7 x c C _ T A A T T T R R ] R V F T S M M A v * X ~.~.~.~.",
"~.~.~.~.~.~.+ + + + 7 D Z T T Z Z T F Z T T F R R R T A M s a 7 7 a n c S F R R R T T R S T R Z Z R T Z F % + + + + ~.~.~.~.~.~.",
"~.~.~.~.~.~.~..     * % V T F A A Z v n F T T T R R F F Z F F F V F T F F T R ] T T Z Z v v D A A F Z V % o     . ~.~.~.~.~.~.~.",
"~.~.~.~.~.~.~.~.~.~.~.2 v x x x x x @ @ x c M T T Z c V Z M D T T D M Z V x Z T T A x x + @ x x x x x v 2 ~.~.~.~.~.~.~.~.~.~.~.",
"~.~.~.~.~.~.~.~.j.j.j.w.h & = * = = h h = 7 M M M x O $ M M M M M M M M % - b M M M 7 = l l = = = = & h w.h.c.c.~.~.~.~.~.~.~.~.",
"~.~.~.~.~.~.c.j.c.j.c.j.2.:.<.<. .l f 3 e , O O - > < ; > + O O O O O O ; < > - + o , e 4 5 l  .<.:.<.2.j.c.j.u.u.c.~.~.~.~.~.~.",
"~.~.~.~.~.c.u.j.u.u.c.u.c.c.c.r.;.h 4 r L r , , 8 8 q < ; : , , , 8 : ; < q 8 8 , , t L r 4 l ;.t.x.c.c.c.u.j.c.j.j.j.~.~.~.~.~.",
"~.~.~.~.~.j.j.j.j.c.j.j.x.h.r.( s = e L +.o.p p i r w w y p p i i p p y w w r t i L I +.L 9 = h ( i.j.j.u.j.u.u.c.j.j.~.~.~.~.~.",
"~.~.~.~.~.j.c.j.j.u.j.c.x.w...R d = e L O.+.o.i , * < r p +.P p i I O.p r q * , i o.+.O.L 9 * l R ( i.j.c.j.c.j.j.u.j.~.~.~.~.~.",
"~.~.~.~.~.c.c.j.c.u.j.j.x.h.w.$.Y l 3 : y u w ; h g - 9 L +.+.O.O.+.+.p 9 - h g ; w u y : 3 J Y ( i.y.j.j.j.j.u.c.j.j.~.~.~.~.~.",
"~.~.~.~.~.j.u.j.c.j.j.j.j.c.x.q.&.R l f G H G h K _ h 4 e O.#.#.@.#.o.r 4 h ` K h G H G g h R ;.i.j.j.c.c.u.c.c.c.u.j.~.~.~.~.~.",
"~.~.~.~.~.~.j.j.u.j.j.c.j.j.j.c.a.%.$.$.;.~ R R ] ] ] 5 > U +.#.@.+.P > 5 ] ` R R R ~ $.$.( %.a.c.c.u.j.u.j.j.j.j.j.~.~.~.~.~.~.",
"~.~.~.~.~.~.~.~.j.x.j.j.x.j.j.x.u.u.h.u.h.*.R ~ ~ ~ ] f - t U +.+.P t > f ] | Q ~ R &.j.j.j.j.j.c.u.c.j.u.c.j.j.~.~.~.~.~.~.~.~.",
"~.~.~.~.~.~.~.~.~.~.~.c.j.j.c.j.j.c.u.c.j.g.a.g.a.9.R T H - 8 y y q > J _ ~ 2.g.g.a.g.j.j.x.c.u.u.j.c.j.c.~.~.~.~.~.~.~.~.~.~.~.",
"~.~.~.~.~.~.~.~.~.~.~.~.~.j.j.j.u.c.c.j.j.c.x.c.c.j.q.-.:.l g H H g l :.-.i.g.c.x.c.c.u.j.j.j.j.c.u.j.~.~.~.~.~.~.~.~.~.~.~.~.~.",
"~.~.~.~.~.~.~.~.~.~.~.~.~.~.j.j.j.j.j.c.j.j.c.u.u.c.c.x.y.=.&.&.&.&.=.g.x.c.c.u.u.j.j.j.c.j.j.c.j.j.~.~.~.~.~.~.~.~.~.~.~.~.~.~.",
"~.~.~.~.~.~.~.~.~.~.~.~.~.~.~.~.~.~.~.~.~.u.j.u.c.j.j.j.j.j.j.j.j.j.j.j.c.u.c.j.c.j.j.~.~.~.~.~.~.~.~.~.~.~.~.~.~.~.~.~.~.~.~.~."
};
