/* XPM */
static char *result[] = {
/* columns rows colors chars-per-pixel */
"16 32 3 1 ",
"  c #071821",
". c #306850",
"X c #86C06C",
/* pixels */
"XXXXXXXXXXXXXXXX",
"XXXXXXX  XXXXXXX",
"XXXXXX X. XXXXXX",
"XXXXX  .. XXXXXX",
"XXXX  ...X XXXXX",
"XXXX .....  XXXX",
"XXX ......X  XXX",
"XXX X.......X XX",
"XXX  X.......X X",
"XXX . .....  . X",
"XX  ..     ..  X",
"XX ........... X",
"X ..X... X...X. ",
"X . ..... X  .. ",
"X  X...... .... ",
"XX  X........X. ",
"X  .  X...... X ",
"X ....     X . X",
"X ......... ... ",
" .............. ",
" ...X.......... ",
" .. .......X... ",
"X  ....... ... X",
"XX .   ....   XX",
"XX   . .. .   XX",
"XXX          XXX",
"XXXX        XXXX",
"XXXXX      XXXXX",
"XXXX        XXXX",
"XXX          XXX",
"XXXX        XXXX",
"XXXXXX    XXXXXX"
};
